<svg xmlns="http://www.w3.org/2000/svg" viewBox="0 0 512 512">
  <rect width="512" height="512" rx="80" fill="#1a1a2e"/>
  <rect x="96" y="80" width="200" height="352" rx="16" fill="#c9a84c"/>
  <rect x="112" y="96" width="168" height="8" rx="4" fill="#1a1a2e" opacity="0.5"/>
  <rect x="112" y="120" width="140" height="8" rx="4" fill="#1a1a2e" opacity="0.5"/>
  <rect x="112" y="144" width="155" height="8" rx="4" fill="#1a1a2e" opacity="0.5"/>
  <rect x="112" y="168" width="130" height="8" rx="4" fill="#1a1a2e" opacity="0.5"/>
  <rect x="140" y="120" width="220" height="300" rx="16" fill="#2d3561"/>
  <rect x="156" y="148" width="188" height="10" rx="5" fill="#c9a84c" opacity="0.9"/>
  <rect x="156" y="176" width="160" height="7" rx="3.5" fill="#fff" opacity="0.5"/>
  <rect x="156" y="196" width="175" height="7" rx="3.5" fill="#fff" opacity="0.5"/>
  <rect x="156" y="216" width="150" height="7" rx="3.5" fill="#fff" opacity="0.5"/>
  <rect x="156" y="236" width="168" height="7" rx="3.5" fill="#fff" opacity="0.5"/>
  <rect x="156" y="256" width="140" height="7" rx="3.5" fill="#fff" opacity="0.5"/>
  <text x="250" y="370" font-family="serif" font-size="72" font-weight="bold" fill="#c9a84c" text-anchor="middle">У</text>
</svg>
